# xmcd
#
# Track frame offsets:
#	150
#	15782
#	25454
#	41434
#	53125
#	61275
#	77662
#	92934
#	108996
#	121814
#	136713
#	145995
#	159123
#	177555
#	188657
#	204375
#
# Disc length: 2958 seconds
#
# Revision: 0
# Processed by: cddbd v1.5.2PL0 Copyright (c) Steve Scherf et al.
# Submitted via: EZCDAudioConverter 7.0.0.1
#
DISCID=c70b8c10
DTITLE=Miklosz Deki Czureja and Family - Cygańska
DYEAR=2007
DGENRE=
TTITLE0=Aj da nuda
TTITLE1=Chajorije
TTITLE2=Mamo
TTITLE3=Buteleczka wina
TTITLE4=Solo B-Dur, walc
TTITLE5=Odmuk mangie so kardziom
TTITLE6=Kałe Bała - Kałe Jakha
TTITLE7=Romani legenda
TTITLE8=O Luśka
TTITLE9=Sar tu mangie more phenehas
TTITLE10=Pizzicato E-Dur
TTITLE11=Cygana Jana
TTITLE12=Den mangie smiro
TTITLE13=Dade Dade
TTITLE14=Dobry Dzień Romale
TTITLE15=Cyganeria
EXTD=
EXTT0=
EXTT1=
EXTT2=
EXTT3=
EXTT4=
EXTT5=
EXTT6=
EXTT7=
EXTT8=
EXTT9=
EXTT10=
EXTT11=
EXTT12=
EXTT13=
EXTT14=
EXTT15=
PLAYORDER=
